<?xml version="1.0" ?><svg id="Layer_1" style="enable-background:new 0 0 32 32;" version="1.1" viewBox="0 0 32 32" xml:space="preserve" xmlns="http://www.w3.org/2000/svg" xmlns:xlink="http://www.w3.org/1999/xlink"><style type="text/css">
	.st0{fill:#00BBB4;}
	.st1{fill:#1B75BC;}
	.st2{fill:#F15A29;}
</style><g><path class="st1" d="M26.1923828,21.6762695H8.0234375l3.8295898-19.4833984   C11.8659668,2.1270752,11.8521118,2.0645752,11.8519897,2H9.8522339H2.5c-0.5522461,0-1,0.4477539-1,1s0.4477539,1,1,1h6.9591064   L5.8261719,22.4833984c-0.0576172,0.293457,0.019043,0.597168,0.2089844,0.828125s0.4736328,0.3647461,0.7724609,0.3647461   h19.3847656c0.5522461,0,1-0.4477539,1-1S26.7446289,21.6762695,26.1923828,21.6762695z"/><circle class="st1" cx="19.6256008" cy="28" r="2"/><circle class="st1" cx="12.2049274" cy="28" r="2"/><path class="st1" d="M10.871582,2L8.119873,16h15.4137573L30.5,2H10.871582z M14.4380493,5.812439   c0.5862427-0.5861816,1.5366211-0.5861816,2.1228027,0s0.5861816,1.5366211,0,2.1228027s-1.5365601,0.5861816-2.1228027,0   C13.8518677,7.3490601,13.8518677,6.3986206,14.4380493,5.812439z M15.3681641,12.3276367   c-0.2558594,0-0.5117188-0.0976563-0.7070313-0.2929688c-0.390625-0.390625-0.390625-1.0234375,0-1.4140625l4.5849609-4.5849609   c0.390625-0.390625,1.0234375-0.390625,1.4140625,0s0.390625,1.0234375,0,1.4140625l-4.5849609,4.5849609   C15.8798828,12.2299805,15.6240234,12.3276367,15.3681641,12.3276367z M20.8834229,12.2578125   c-0.5861816,0.5861816-1.5365601,0.5861816-2.1227417,0c-0.5862427-0.5861816-0.5862427-1.5365601,0-2.1228027   c0.5861816-0.5861816,1.5365601-0.5861816,2.1227417,0C21.4696045,10.7212524,21.4696045,11.6716309,20.8834229,12.2578125z"/></g></svg>