<?xml version="1.0" ?><svg height="19.996094" id="svg8" version="1.1" viewBox="0 0 5.2528038 5.2906333" width="19.853117" xmlns="http://www.w3.org/2000/svg" xmlns:cc="http://creativecommons.org/ns#" xmlns:dc="http://purl.org/dc/elements/1.1/" xmlns:rdf="http://www.w3.org/1999/02/22-rdf-syntax-ns#" xmlns:svg="http://www.w3.org/2000/svg"><defs id="defs2"/><g id="layer7" transform="translate(-0.52916465,-17.463534)"><g id="FLAT-6"><path d="m 0.7927165,17.463534 a 0.2645835,0.2645835 0 0 0 -0.26354982,0.26355 0.2645835,0.2645835 0 0 0 0.26354982,0.265617 h 0.0589111 l 0.214974,0.857312 a 0.2645835,0.2645835 0 0 0 0.037724,0.08372 c -0.00241,0.03551 -0.00563,0.07098 -0.00259,0.107487 l 0.1813843,2.178161 c 0.034698,0.41638 0.3867789,0.742074 0.8046021,0.742074 h 2.7031943 c 0.4178232,0 0.7719709,-0.325694 0.8066691,-0.742074 L 5.7794913,19.041216 C 5.8143644,18.622745 5.4764537,18.25625 5.056539,18.25625 H 1.8221111 c -0.1222232,0 -0.2355659,0.03351 -0.3364136,0.08785 L 1.3146485,17.662488 A 0.26460996,0.26460996 0 0 0 1.0588501,17.463534 Z" id="path1363" style="color:#000000;font-style:normal;font-variant:normal;font-weight:normal;font-stretch:normal;font-size:medium;line-height:normal;font-family:sans-serif;font-variant-ligatures:normal;font-variant-position:normal;font-variant-caps:normal;font-variant-numeric:normal;font-variant-alternates:normal;font-variant-east-asian:normal;font-feature-settings:normal;font-variation-settings:normal;text-indent:0;text-align:start;text-decoration:none;text-decoration-line:none;text-decoration-style:solid;text-decoration-color:#000000;letter-spacing:normal;word-spacing:normal;text-transform:none;writing-mode:lr-tb;direction:ltr;text-orientation:mixed;dominant-baseline:auto;baseline-shift:baseline;text-anchor:start;white-space:normal;shape-padding:0;shape-margin:0;inline-size:0;clip-rule:nonzero;display:inline;overflow:visible;visibility:visible;isolation:auto;mix-blend-mode:normal;color-interpolation:sRGB;color-interpolation-filters:linearRGB;solid-color:#000000;solid-opacity:1;vector-effect:none;fill:#82bbfb;fill-opacity:1;fill-rule:nonzero;stroke:none;stroke-width:0.529167;stroke-linecap:round;stroke-linejoin:round;stroke-miterlimit:4;stroke-dasharray:none;stroke-dashoffset:0;stroke-opacity:1;paint-order:markers fill stroke;color-rendering:auto;image-rendering:auto;shape-rendering:auto;text-rendering:auto;enable-background:accumulate;stop-color:#000000"/><path d="M 21.494141,76.15625 A 17.202391,32.202391 69.881832 0 1 17.84375,77.630859 17.202391,32.202391 69.881832 0 1 4.9492188,80.748047 c 0.3565387,1.301471 1.5515643,2.255859 2.9414062,2.255859 h 10.216797 c 1.579174,0 2.917685,-1.230968 3.048828,-2.804687 z" id="path1469" style="color:#000000;font-style:normal;font-variant:normal;font-weight:normal;font-stretch:normal;font-size:medium;line-height:normal;font-family:sans-serif;font-variant-ligatures:normal;font-variant-position:normal;font-variant-caps:normal;font-variant-numeric:normal;font-variant-alternates:normal;font-variant-east-asian:normal;font-feature-settings:normal;font-variation-settings:normal;text-indent:0;text-align:start;text-decoration:none;text-decoration-line:none;text-decoration-style:solid;text-decoration-color:#000000;letter-spacing:normal;word-spacing:normal;text-transform:none;writing-mode:lr-tb;direction:ltr;text-orientation:mixed;dominant-baseline:auto;baseline-shift:baseline;text-anchor:start;white-space:normal;shape-padding:0;shape-margin:0;inline-size:0;clip-rule:nonzero;display:inline;overflow:visible;visibility:visible;isolation:auto;mix-blend-mode:normal;color-interpolation:sRGB;color-interpolation-filters:linearRGB;solid-color:#000000;solid-opacity:1;vector-effect:none;fill:#65a3fc;fill-opacity:1;fill-rule:nonzero;stroke:none;stroke-width:2;stroke-linecap:round;stroke-linejoin:round;stroke-miterlimit:4;stroke-dasharray:none;stroke-dashoffset:0;stroke-opacity:1;paint-order:markers fill stroke;color-rendering:auto;image-rendering:auto;shape-rendering:auto;text-rendering:auto;enable-background:accumulate;stop-color:#000000" transform="scale(0.26458334)"/><path d="m 2.6458334,21.695834 c -0.2891224,0 -0.5291667,0.240051 -0.5291667,0.529167 0,0.289116 0.2400561,0.529166 0.5291667,0.529166 0.2891105,0 0.5291667,-0.24005 0.5291667,-0.529166 0,-0.289117 -0.2400443,-0.529167 -0.5291667,-0.529167 z m 1.8520834,0 c -0.2891224,0 -0.5291667,0.240051 -0.5291667,0.529167 0,0.289116 0.2400562,0.529166 0.5291667,0.529166 0.2891105,0 0.5291667,-0.24005 0.5291667,-0.529166 0,-0.289117 -0.2400443,-0.529167 -0.5291667,-0.529167 z" id="path1379" style="color:#000000;font-style:normal;font-variant:normal;font-weight:normal;font-stretch:normal;font-size:medium;line-height:normal;font-family:sans-serif;font-variant-ligatures:normal;font-variant-position:normal;font-variant-caps:normal;font-variant-numeric:normal;font-variant-alternates:normal;font-variant-east-asian:normal;font-feature-settings:normal;font-variation-settings:normal;text-indent:0;text-align:start;text-decoration:none;text-decoration-line:none;text-decoration-style:solid;text-decoration-color:#000000;letter-spacing:normal;word-spacing:normal;text-transform:none;writing-mode:lr-tb;direction:ltr;text-orientation:mixed;dominant-baseline:auto;baseline-shift:baseline;text-anchor:start;white-space:normal;shape-padding:0;shape-margin:0;inline-size:0;clip-rule:nonzero;display:inline;overflow:visible;visibility:visible;isolation:auto;mix-blend-mode:normal;color-interpolation:sRGB;color-interpolation-filters:linearRGB;solid-color:#000000;solid-opacity:1;vector-effect:none;fill:#006ef9;fill-opacity:1;fill-rule:nonzero;stroke:none;stroke-width:0.529164;stroke-linecap:round;stroke-linejoin:round;stroke-miterlimit:4;stroke-dasharray:none;stroke-dashoffset:0;stroke-opacity:1;color-rendering:auto;image-rendering:auto;shape-rendering:auto;text-rendering:auto;enable-background:accumulate;stop-color:#000000"/></g></g></svg>